<svg xmlns="http://www.w3.org/2000/svg" xmlns:xlink="http://www.w3.org/1999/xlink" width="455" zoomAndPan="magnify" viewBox="0 0 341.25 104.999996" height="140" preserveAspectRatio="xMidYMid meet" version="1.2"><defs/><g id="39f462a700"><path style=" stroke:none;fill-rule:nonzero;fill:#b8a7ff;fill-opacity:1;" d="M 252.570312 17.277344 L 303.957031 17.277344 C 307.71875 17.277344 311.332031 18.773438 313.992188 21.433594 C 316.65625 24.097656 318.148438 27.707031 318.148438 31.472656 L 318.148438 74.054688 C 318.148438 77.820312 316.65625 81.429688 313.992188 84.09375 C 311.332031 86.753906 307.71875 88.25 303.957031 88.25 L 252.570312 88.25 C 244.730469 88.25 238.375 81.894531 238.375 74.054688 L 238.375 31.472656 C 238.375 23.632812 244.730469 17.277344 252.570312 17.277344 Z M 252.570312 17.277344 "/><g style="fill:#3d3d3d;fill-opacity:1;"><g transform="translate(241.943664, 72.086131)"><path style="stroke:none" d="M 23.671875 -12.25 C 23.671875 -14.625 22.851562 -16.707031 21.21875 -18.5 C 19.550781 -20.28125 17.492188 -21.171875 15.046875 -21.171875 C 12.585938 -21.171875 10.539062 -20.28125 8.90625 -18.5 C 7.238281 -16.707031 6.40625 -14.625 6.40625 -12.25 C 6.40625 -9.875 7.238281 -7.796875 8.90625 -6.015625 C 10.539062 -4.234375 12.585938 -3.34375 15.046875 -3.34375 C 17.492188 -3.34375 19.550781 -4.234375 21.21875 -6.015625 C 22.851562 -7.796875 23.671875 -9.875 23.671875 -12.25 Z M 27.578125 0 L 23.671875 0 L 23.671875 -4.171875 C 23.453125 -3.878906 23.226562 -3.601562 23 -3.34375 C 20.664062 -0.738281 17.804688 0.5625 14.421875 0.5625 C 11.046875 0.5625 8.207031 -0.738281 5.90625 -3.34375 C 3.632812 -5.863281 2.5 -8.832031 2.5 -12.25 C 2.5 -15.664062 3.632812 -18.640625 5.90625 -21.171875 C 8.207031 -23.765625 11.046875 -25.0625 14.421875 -25.0625 C 17.804688 -25.0625 20.664062 -23.765625 23 -21.171875 C 23.226562 -20.910156 23.453125 -20.628906 23.671875 -20.328125 L 23.671875 -24.515625 L 27.578125 -24.515625 Z M 27.578125 0 "/></g></g><g style="fill:#3d3d3d;fill-opacity:1;"><g transform="translate(273.687098, 72.086131)"><path style="stroke:none" d="M 16.765625 -19.4375 C 15.878906 -20.257812 14.914062 -20.671875 13.875 -20.671875 C 12.863281 -20.671875 12.007812 -20.390625 11.3125 -19.828125 C 10.5625 -19.234375 9.945312 -18.53125 9.46875 -17.71875 C 8.539062 -16.082031 8.078125 -14.257812 8.078125 -12.25 L 8.078125 0 L 4.171875 0 L 4.171875 -24.515625 L 8.078125 -24.515625 L 8.078125 -19.4375 L 8.25 -20.4375 C 9.539062 -23.488281 11.5625 -25.015625 14.3125 -25.015625 C 15.164062 -25.015625 15.984375 -24.847656 16.765625 -24.515625 Z M 16.765625 -19.4375 "/></g></g><g style="fill:#3d3d3d;fill-opacity:1;"><g transform="translate(291.006759, 72.086131)"><path style="stroke:none" d="M 7.296875 13.921875 L 2.5625 13.921875 L 10.8125 -4.015625 L 0.5625 -24.515625 L 5.015625 -24.515625 L 12.875 -8.078125 L 19.890625 -24.515625 L 24.234375 -24.515625 Z M 7.296875 13.921875 "/></g></g><path style=" stroke:none;fill-rule:nonzero;fill:#ffbde9;fill-opacity:1;" d="M 49.246094 17 L 221.308594 17 C 225.0625 17 228.667969 18.492188 231.320312 21.148438 C 233.976562 23.804688 235.46875 27.40625 235.46875 31.164062 L 235.46875 73.652344 C 235.46875 77.410156 233.976562 81.011719 231.320312 83.667969 C 228.667969 86.324219 225.0625 87.816406 221.308594 87.816406 L 49.246094 87.816406 C 41.425781 87.816406 35.082031 81.472656 35.082031 73.652344 L 35.082031 31.164062 C 35.082031 23.339844 41.425781 17 49.246094 17 Z M 49.246094 17 "/><g style="fill:#3d3d3d;fill-opacity:1;"><g transform="translate(38.668814, 71.912053)"><path style="stroke:none" d="M 28.125 -12.8125 L 28.125 -10.75 L 6.578125 -10.75 C 6.941406 -8.632812 7.960938 -6.910156 9.640625 -5.578125 C 11.347656 -4.203125 13.238281 -3.515625 15.3125 -3.515625 C 16.726562 -3.515625 18.085938 -3.847656 19.390625 -4.515625 C 20.648438 -5.140625 21.707031 -6.03125 22.5625 -7.1875 L 27.015625 -7.1875 C 25.972656 -4.84375 24.414062 -3.003906 22.34375 -1.671875 C 20.21875 -0.296875 18.082031 0.390625 15.9375 0.390625 C 13.738281 0.390625 11.878906 0.0546875 10.359375 -0.609375 C 8.796875 -1.273438 7.441406 -2.1875 6.296875 -3.34375 C 3.765625 -5.789062 2.5 -8.796875 2.5 -12.359375 C 2.5 -15.890625 3.765625 -18.921875 6.296875 -21.453125 C 8.785156 -23.929688 11.789062 -25.171875 15.3125 -25.171875 C 18.726562 -25.171875 21.71875 -23.96875 24.28125 -21.5625 C 26.84375 -19.101562 28.125 -16.1875 28.125 -12.8125 Z M 24.015625 -14.09375 C 23.566406 -16.175781 22.523438 -17.898438 20.890625 -19.265625 C 19.253906 -20.609375 17.394531 -21.28125 15.3125 -21.28125 C 12.125 -21.28125 9.617188 -19.847656 7.796875 -16.984375 C 7.242188 -16.097656 6.851562 -15.132812 6.625 -14.09375 Z M 24.015625 -14.09375 "/></g></g><g style="fill:#3d3d3d;fill-opacity:1;"><g transform="translate(69.022043, 71.912053)"><path style="stroke:none" d="M 35.265625 -0.109375 L 35.265625 -15.4375 C 35.265625 -17.957031 34.460938 -19.738281 32.859375 -20.78125 C 32.304688 -21.113281 31.453125 -21.28125 30.296875 -21.28125 C 29.148438 -21.28125 28.078125 -20.945312 27.078125 -20.28125 C 26.066406 -19.601562 25.265625 -18.75 24.671875 -17.71875 C 24.453125 -17.300781 24.25 -16.851562 24.0625 -16.375 C 24.0625 -16.082031 24.0625 -15.769531 24.0625 -15.4375 L 24.0625 -0.109375 L 20.171875 -0.109375 L 20.171875 -15.4375 C 20.171875 -17.957031 19.367188 -19.738281 17.765625 -20.78125 C 17.210938 -21.113281 16.359375 -21.28125 15.203125 -21.28125 C 14.054688 -21.28125 12.976562 -20.945312 11.96875 -20.28125 C 10.96875 -19.601562 10.171875 -18.75 9.578125 -17.71875 C 8.796875 -16.34375 8.296875 -14.648438 8.078125 -12.640625 L 8.078125 -0.109375 L 4.171875 -0.109375 L 4.171875 -24.625 L 8.078125 -24.625 L 8.078125 -20.71875 C 8.816406 -21.976562 9.742188 -23 10.859375 -23.78125 C 12.117188 -24.707031 13.601562 -25.171875 15.3125 -25.171875 C 17.019531 -25.171875 18.394531 -24.910156 19.4375 -24.390625 C 20.476562 -23.835938 21.351562 -23.113281 22.0625 -22.21875 C 22.425781 -21.707031 22.757812 -21.132812 23.0625 -20.5 C 23.800781 -21.832031 24.765625 -22.925781 25.953125 -23.78125 C 27.222656 -24.707031 28.707031 -25.171875 30.40625 -25.171875 C 32.113281 -25.171875 33.488281 -24.910156 34.53125 -24.390625 C 35.570312 -23.835938 36.445312 -23.113281 37.15625 -22.21875 C 38.488281 -20.476562 39.15625 -18.21875 39.15625 -15.4375 L 39.15625 -0.109375 Z M 35.265625 -0.109375 "/></g></g><g style="fill:#3d3d3d;fill-opacity:1;"><g transform="translate(111.516564, 71.912053)"><path style="stroke:none" d="M 24.234375 -12.359375 C 24.234375 -14.816406 23.359375 -16.914062 21.609375 -18.65625 C 19.867188 -20.40625 17.769531 -21.28125 15.3125 -21.28125 C 12.863281 -21.28125 10.769531 -20.40625 9.03125 -18.65625 C 7.28125 -16.914062 6.40625 -14.816406 6.40625 -12.359375 C 6.40625 -9.953125 7.28125 -7.875 9.03125 -6.125 C 10.769531 -4.382812 12.863281 -3.515625 15.3125 -3.515625 C 17.769531 -3.515625 19.867188 -4.382812 21.609375 -6.125 C 23.359375 -7.875 24.234375 -9.953125 24.234375 -12.359375 Z M 28.125 -12.359375 C 28.125 -8.796875 26.878906 -5.789062 24.390625 -3.34375 C 21.828125 -0.851562 18.800781 0.390625 15.3125 0.390625 C 11.820312 0.390625 8.816406 -0.851562 6.296875 -3.34375 C 3.765625 -5.789062 2.5 -8.796875 2.5 -12.359375 C 2.5 -15.890625 3.765625 -18.921875 6.296875 -21.453125 C 8.785156 -23.929688 11.789062 -25.171875 15.3125 -25.171875 C 18.84375 -25.171875 21.867188 -23.929688 24.390625 -21.453125 C 26.878906 -18.921875 28.125 -15.890625 28.125 -12.359375 Z M 28.125 -12.359375 "/></g></g><g style="fill:#3d3d3d;fill-opacity:1;"><g transform="translate(142.148268, 71.912053)"><path style="stroke:none" d="M 1.109375 -20.890625 L 1.109375 -24.515625 L 7.234375 -24.515625 L 7.234375 -34.03125 L 11.140625 -34.03125 L 11.140625 -24.515625 L 17.21875 -24.515625 L 17.21875 -20.890625 L 11.140625 -20.890625 L 11.140625 0 L 7.234375 0 L 7.234375 -20.890625 Z M 1.109375 -20.890625 "/></g></g><g style="fill:#3d3d3d;fill-opacity:1;"><g transform="translate(160.471598, 71.912053)"><path style="stroke:none" d="M 8.125 -32.96875 C 8.613281 -32.488281 8.859375 -31.914062 8.859375 -31.25 C 8.859375 -30.539062 8.613281 -29.945312 8.125 -29.46875 C 7.644531 -28.988281 7.070312 -28.75 6.40625 -28.75 C 5.695312 -28.75 5.101562 -28.988281 4.625 -29.46875 C 4.144531 -29.945312 3.90625 -30.539062 3.90625 -31.25 C 3.90625 -31.914062 4.144531 -32.488281 4.625 -32.96875 C 5.101562 -33.457031 5.695312 -33.703125 6.40625 -33.703125 C 7.070312 -33.703125 7.644531 -33.457031 8.125 -32.96875 Z M 8.359375 0 L 4.453125 0 L 4.453125 -24.515625 L 8.359375 -24.515625 Z M 8.359375 0 "/></g></g><g style="fill:#3d3d3d;fill-opacity:1;"><g transform="translate(173.22553, 71.912053)"><path style="stroke:none" d="M 24.234375 -12.359375 C 24.234375 -14.816406 23.359375 -16.914062 21.609375 -18.65625 C 19.867188 -20.40625 17.769531 -21.28125 15.3125 -21.28125 C 12.863281 -21.28125 10.769531 -20.40625 9.03125 -18.65625 C 7.28125 -16.914062 6.40625 -14.816406 6.40625 -12.359375 C 6.40625 -9.953125 7.28125 -7.875 9.03125 -6.125 C 10.769531 -4.382812 12.863281 -3.515625 15.3125 -3.515625 C 17.769531 -3.515625 19.867188 -4.382812 21.609375 -6.125 C 23.359375 -7.875 24.234375 -9.953125 24.234375 -12.359375 Z M 28.125 -12.359375 C 28.125 -8.796875 26.878906 -5.789062 24.390625 -3.34375 C 21.828125 -0.851562 18.800781 0.390625 15.3125 0.390625 C 11.820312 0.390625 8.816406 -0.851562 6.296875 -3.34375 C 3.765625 -5.789062 2.5 -8.796875 2.5 -12.359375 C 2.5 -15.890625 3.765625 -18.921875 6.296875 -21.453125 C 8.785156 -23.929688 11.789062 -25.171875 15.3125 -25.171875 C 18.84375 -25.171875 21.867188 -23.929688 24.390625 -21.453125 C 26.878906 -18.921875 28.125 -15.890625 28.125 -12.359375 Z M 28.125 -12.359375 "/></g></g><g style="fill:#3d3d3d;fill-opacity:1;"><g transform="translate(203.857234, 71.912053)"><path style="stroke:none" d="M 21.109375 0 L 21.109375 -15.3125 C 21.109375 -16.914062 20.753906 -18.289062 20.046875 -19.4375 C 19.304688 -20.550781 18.101562 -21.109375 16.4375 -21.109375 C 14.757812 -21.109375 13.398438 -20.796875 12.359375 -20.171875 C 11.328125 -19.535156 10.492188 -18.71875 9.859375 -17.71875 C 8.671875 -15.851562 8.078125 -13.363281 8.078125 -10.25 L 8.078125 0 L 4.171875 0 L 4.171875 -24.515625 L 8.078125 -24.515625 L 8.078125 -20.28125 C 8.890625 -21.65625 9.929688 -22.785156 11.203125 -23.671875 C 12.535156 -24.566406 14.070312 -25.015625 15.8125 -25.015625 C 17.5625 -25.015625 18.972656 -24.769531 20.046875 -24.28125 C 21.128906 -23.757812 22.039062 -23.070312 22.78125 -22.21875 C 24.269531 -20.476562 25.015625 -18.175781 25.015625 -15.3125 L 25.015625 0 Z M 21.109375 0 "/></g></g></g></svg>