<svg xmlns="http://www.w3.org/2000/svg" xmlns:xlink="http://www.w3.org/1999/xlink" width="402" zoomAndPan="magnify" viewBox="0 0 301.5 130.499996" height="174" preserveAspectRatio="xMidYMid meet" version="1.2"><defs/><g id="91e282748c"><g style="fill:#3d3d3d;fill-opacity:1;"><g transform="translate(17.53492, 69.90038)"><path style="stroke:none" d="M 28.078125 -12.796875 L 28.078125 -10.734375 L 6.5625 -10.734375 C 6.9375 -8.617188 7.957031 -6.894531 9.625 -5.5625 C 11.320312 -4.1875 13.210938 -3.5 15.296875 -3.5 C 16.703125 -3.5 18.054688 -3.832031 19.359375 -4.5 C 20.617188 -5.132812 21.671875 -6.023438 22.515625 -7.171875 L 26.96875 -7.171875 C 25.925781 -4.835938 24.367188 -3.003906 22.296875 -1.671875 C 20.179688 -0.296875 18.050781 0.390625 15.90625 0.390625 C 13.71875 0.390625 11.863281 0.0546875 10.34375 -0.609375 C 8.78125 -1.273438 7.425781 -2.1875 6.28125 -3.34375 C 3.757812 -5.78125 2.5 -8.78125 2.5 -12.34375 C 2.5 -15.863281 3.757812 -18.882812 6.28125 -21.40625 C 8.769531 -23.894531 11.773438 -25.140625 15.296875 -25.140625 C 18.703125 -25.140625 21.6875 -23.929688 24.25 -21.515625 C 26.800781 -19.066406 28.078125 -16.160156 28.078125 -12.796875 Z M 23.96875 -14.0625 C 23.519531 -16.144531 22.484375 -17.867188 20.859375 -19.234375 C 19.222656 -20.578125 17.367188 -21.25 15.296875 -21.25 C 12.109375 -21.25 9.601562 -19.816406 7.78125 -16.953125 C 7.226562 -16.066406 6.84375 -15.101562 6.625 -14.0625 Z M 23.96875 -14.0625 "/></g></g><g style="fill:#3d3d3d;fill-opacity:1;"><g transform="translate(47.838752, 69.90038)"><path style="stroke:none" d="M 35.203125 -0.109375 L 35.203125 -15.40625 C 35.203125 -17.925781 34.40625 -19.707031 32.8125 -20.75 C 32.25 -21.082031 31.394531 -21.25 30.25 -21.25 C 29.101562 -21.25 28.03125 -20.910156 27.03125 -20.234375 C 26.03125 -19.566406 25.234375 -18.71875 24.640625 -17.6875 C 24.410156 -17.28125 24.203125 -16.832031 24.015625 -16.34375 C 24.015625 -16.050781 24.015625 -15.738281 24.015625 -15.40625 L 24.015625 -0.109375 L 20.125 -0.109375 L 20.125 -15.40625 C 20.125 -17.925781 19.328125 -19.707031 17.734375 -20.75 C 17.179688 -21.082031 16.332031 -21.25 15.1875 -21.25 C 14.03125 -21.25 12.953125 -20.910156 11.953125 -20.234375 C 10.953125 -19.566406 10.15625 -18.71875 9.5625 -17.6875 C 8.78125 -16.3125 8.28125 -14.625 8.0625 -12.625 L 8.0625 -0.109375 L 4.171875 -0.109375 L 4.171875 -24.578125 L 8.0625 -24.578125 L 8.0625 -20.6875 C 8.800781 -21.945312 9.726562 -22.96875 10.84375 -23.75 C 12.101562 -24.675781 13.585938 -25.140625 15.296875 -25.140625 C 16.992188 -25.140625 18.363281 -24.878906 19.40625 -24.359375 C 20.445312 -23.796875 21.316406 -23.070312 22.015625 -22.1875 C 22.390625 -21.664062 22.722656 -21.09375 23.015625 -20.46875 C 23.765625 -21.800781 24.726562 -22.894531 25.90625 -23.75 C 27.175781 -24.675781 28.660156 -25.140625 30.359375 -25.140625 C 32.066406 -25.140625 33.441406 -24.878906 34.484375 -24.359375 C 35.515625 -23.796875 36.382812 -23.070312 37.09375 -22.1875 C 38.425781 -20.445312 39.09375 -18.1875 39.09375 -15.40625 L 39.09375 -0.109375 Z M 35.203125 -0.109375 "/></g></g><g style="fill:#3d3d3d;fill-opacity:1;"><g transform="translate(90.264117, 69.90038)"><path style="stroke:none" d="M 24.1875 -12.34375 C 24.1875 -14.789062 23.316406 -16.882812 21.578125 -18.625 C 19.835938 -20.375 17.742188 -21.25 15.296875 -21.25 C 12.847656 -21.25 10.753906 -20.375 9.015625 -18.625 C 7.265625 -16.882812 6.390625 -14.789062 6.390625 -12.34375 C 6.390625 -9.9375 7.265625 -7.859375 9.015625 -6.109375 C 10.753906 -4.367188 12.847656 -3.5 15.296875 -3.5 C 17.742188 -3.5 19.835938 -4.367188 21.578125 -6.109375 C 23.316406 -7.859375 24.1875 -9.9375 24.1875 -12.34375 Z M 28.078125 -12.34375 C 28.078125 -8.78125 26.835938 -5.78125 24.359375 -3.34375 C 21.796875 -0.851562 18.773438 0.390625 15.296875 0.390625 C 11.804688 0.390625 8.800781 -0.851562 6.28125 -3.34375 C 3.757812 -5.78125 2.5 -8.78125 2.5 -12.34375 C 2.5 -15.863281 3.757812 -18.882812 6.28125 -21.40625 C 8.769531 -23.894531 11.773438 -25.140625 15.296875 -25.140625 C 18.816406 -25.140625 21.835938 -23.894531 24.359375 -21.40625 C 26.835938 -18.882812 28.078125 -15.863281 28.078125 -12.34375 Z M 28.078125 -12.34375 "/></g></g><g style="fill:#3d3d3d;fill-opacity:1;"><g transform="translate(120.845971, 69.90038)"><path style="stroke:none" d="M 1.109375 -20.859375 L 1.109375 -24.46875 L 7.234375 -24.46875 L 7.234375 -33.984375 L 11.125 -33.984375 L 11.125 -24.46875 L 17.1875 -24.46875 L 17.1875 -20.859375 L 11.125 -20.859375 L 11.125 0 L 7.234375 0 L 7.234375 -20.859375 Z M 1.109375 -20.859375 "/></g></g><g style="fill:#3d3d3d;fill-opacity:1;"><g transform="translate(139.139481, 69.90038)"><path style="stroke:none" d="M 8.125 -32.921875 C 8.601562 -32.441406 8.84375 -31.867188 8.84375 -31.203125 C 8.84375 -30.492188 8.601562 -29.898438 8.125 -29.421875 C 7.632812 -28.929688 7.054688 -28.6875 6.390625 -28.6875 C 5.691406 -28.6875 5.097656 -28.929688 4.609375 -29.421875 C 4.128906 -29.898438 3.890625 -30.492188 3.890625 -31.203125 C 3.890625 -31.867188 4.128906 -32.441406 4.609375 -32.921875 C 5.097656 -33.398438 5.691406 -33.640625 6.390625 -33.640625 C 7.054688 -33.640625 7.632812 -33.398438 8.125 -32.921875 Z M 8.34375 0 L 4.453125 0 L 4.453125 -24.46875 L 8.34375 -24.46875 Z M 8.34375 0 "/></g></g><g style="fill:#3d3d3d;fill-opacity:1;"><g transform="translate(151.872657, 69.90038)"><path style="stroke:none" d="M 24.1875 -12.34375 C 24.1875 -14.789062 23.316406 -16.882812 21.578125 -18.625 C 19.835938 -20.375 17.742188 -21.25 15.296875 -21.25 C 12.847656 -21.25 10.753906 -20.375 9.015625 -18.625 C 7.265625 -16.882812 6.390625 -14.789062 6.390625 -12.34375 C 6.390625 -9.9375 7.265625 -7.859375 9.015625 -6.109375 C 10.753906 -4.367188 12.847656 -3.5 15.296875 -3.5 C 17.742188 -3.5 19.835938 -4.367188 21.578125 -6.109375 C 23.316406 -7.859375 24.1875 -9.9375 24.1875 -12.34375 Z M 28.078125 -12.34375 C 28.078125 -8.78125 26.835938 -5.78125 24.359375 -3.34375 C 21.796875 -0.851562 18.773438 0.390625 15.296875 0.390625 C 11.804688 0.390625 8.800781 -0.851562 6.28125 -3.34375 C 3.757812 -5.78125 2.5 -8.78125 2.5 -12.34375 C 2.5 -15.863281 3.757812 -18.882812 6.28125 -21.40625 C 8.769531 -23.894531 11.773438 -25.140625 15.296875 -25.140625 C 18.816406 -25.140625 21.835938 -23.894531 24.359375 -21.40625 C 26.835938 -18.882812 28.078125 -15.863281 28.078125 -12.34375 Z M 28.078125 -12.34375 "/></g></g><g style="fill:#3d3d3d;fill-opacity:1;"><g transform="translate(182.454511, 69.90038)"><path style="stroke:none" d="M 21.078125 0 L 21.078125 -15.296875 C 21.078125 -16.890625 20.722656 -18.257812 20.015625 -19.40625 C 19.273438 -20.519531 18.070312 -21.078125 16.40625 -21.078125 C 14.738281 -21.078125 13.382812 -20.757812 12.34375 -20.125 C 11.300781 -19.5 10.46875 -18.6875 9.84375 -17.6875 C 8.65625 -15.832031 8.0625 -13.347656 8.0625 -10.234375 L 8.0625 0 L 4.171875 0 L 4.171875 -24.46875 L 8.0625 -24.46875 L 8.0625 -20.234375 C 8.875 -21.609375 9.910156 -22.742188 11.171875 -23.640625 C 12.503906 -24.523438 14.046875 -24.96875 15.796875 -24.96875 C 17.535156 -24.96875 18.941406 -24.726562 20.015625 -24.25 C 21.085938 -23.726562 22 -23.039062 22.75 -22.1875 C 24.226562 -20.445312 24.96875 -18.148438 24.96875 -15.296875 L 24.96875 0 Z M 21.078125 0 "/></g></g><g style="fill:#3d3d3d;fill-opacity:1;"><g transform="translate(210.756613, 69.90038)"><path style="stroke:none" d="M 23.640625 -12.234375 C 23.640625 -14.609375 22.820312 -16.6875 21.1875 -18.46875 C 19.519531 -20.238281 17.460938 -21.125 15.015625 -21.125 C 12.566406 -21.125 10.523438 -20.238281 8.890625 -18.46875 C 7.222656 -16.6875 6.390625 -14.609375 6.390625 -12.234375 C 6.390625 -9.859375 7.222656 -7.78125 8.890625 -6 C 10.523438 -4.226562 12.566406 -3.34375 15.015625 -3.34375 C 17.460938 -3.34375 19.519531 -4.226562 21.1875 -6 C 22.820312 -7.78125 23.640625 -9.859375 23.640625 -12.234375 Z M 27.53125 0 L 23.640625 0 L 23.640625 -4.171875 C 23.410156 -3.867188 23.1875 -3.59375 22.96875 -3.34375 C 20.632812 -0.738281 17.78125 0.5625 14.40625 0.5625 C 11.03125 0.5625 8.191406 -0.738281 5.890625 -3.34375 C 3.628906 -5.863281 2.5 -8.828125 2.5 -12.234375 C 2.5 -15.640625 3.628906 -18.601562 5.890625 -21.125 C 8.191406 -23.726562 11.03125 -25.03125 14.40625 -25.03125 C 17.78125 -25.03125 20.632812 -23.726562 22.96875 -21.125 C 23.1875 -20.875 23.410156 -20.597656 23.640625 -20.296875 L 23.640625 -24.46875 L 27.53125 -24.46875 Z M 27.53125 0 "/></g></g><g style="fill:#3d3d3d;fill-opacity:1;"><g transform="translate(242.450532, 69.90038)"><path style="stroke:none" d="M 16.734375 -19.40625 C 15.847656 -20.21875 14.882812 -20.625 13.84375 -20.625 C 12.84375 -20.625 11.988281 -20.347656 11.28125 -19.796875 C 10.539062 -19.203125 9.929688 -18.5 9.453125 -17.6875 C 8.523438 -16.050781 8.0625 -14.234375 8.0625 -12.234375 L 8.0625 0 L 4.171875 0 L 4.171875 -24.46875 L 8.0625 -24.46875 L 8.0625 -19.40625 L 8.234375 -20.40625 C 9.523438 -23.445312 11.546875 -24.96875 14.296875 -24.96875 C 15.148438 -24.96875 15.960938 -24.800781 16.734375 -24.46875 Z M 16.734375 -19.40625 "/></g></g><g style="fill:#3d3d3d;fill-opacity:1;"><g transform="translate(259.743177, 69.90038)"><path style="stroke:none" d="M 7.28125 13.90625 L 2.5625 13.90625 L 10.78125 -4 L 0.5625 -24.46875 L 5 -24.46875 L 12.84375 -8.0625 L 19.859375 -24.46875 L 24.1875 -24.46875 Z M 7.28125 13.90625 "/></g></g><g style="fill:#3d3d3d;fill-opacity:1;"><g transform="translate(23.02171, 110.860582)"><path style="stroke:none" d="M 2.28125 6.96875 L -0.078125 6.96875 L 5.796875 -2.015625 L 2.671875 -12.265625 L 4.90625 -12.265625 L 7.21875 -4.046875 L 12.359375 -12.265625 L 14.53125 -12.265625 Z M 2.28125 6.96875 "/></g></g><g style="fill:#3d3d3d;fill-opacity:1;"><g transform="translate(34.874672, 110.860582)"><path style="stroke:none" d="M 13.328125 -6.1875 C 13.566406 -7.394531 13.335938 -8.445312 12.640625 -9.34375 C 11.929688 -10.21875 10.960938 -10.65625 9.734375 -10.65625 C 8.503906 -10.65625 7.367188 -10.21875 6.328125 -9.34375 C 5.304688 -8.488281 4.664062 -7.4375 4.40625 -6.1875 C 4.1875 -4.957031 4.421875 -3.914062 5.109375 -3.0625 C 5.804688 -2.1875 6.769531 -1.75 8 -1.75 C 9.226562 -1.75 10.363281 -2.1875 11.40625 -3.0625 C 12.46875 -3.957031 13.109375 -5 13.328125 -6.1875 Z M 15.28125 -6.1875 C 14.945312 -4.40625 14.023438 -2.898438 12.515625 -1.671875 C 11.035156 -0.429688 9.410156 0.1875 7.640625 0.1875 C 5.878906 0.1875 4.484375 -0.429688 3.453125 -1.671875 C 2.453125 -2.898438 2.117188 -4.40625 2.453125 -6.1875 C 2.785156 -7.957031 3.707031 -9.460938 5.21875 -10.703125 C 6.738281 -11.972656 8.375 -12.609375 10.125 -12.609375 C 11.894531 -12.609375 13.28125 -11.972656 14.28125 -10.703125 C 15.28125 -9.460938 15.613281 -7.957031 15.28125 -6.1875 Z M 15.28125 -6.1875 "/></g></g><g style="fill:#3d3d3d;fill-opacity:1;"><g transform="translate(50.2138, 110.860582)"><path style="stroke:none" d="M 10.984375 -2.09375 C 9.753906 -0.53125 8.234375 0.25 6.421875 0.25 C 5.035156 0.25 4.046875 -0.203125 3.453125 -1.109375 C 2.859375 -2.023438 2.703125 -3.191406 2.984375 -4.609375 L 4.484375 -12.265625 L 6.4375 -12.265625 L 4.9375 -4.609375 C 4.769531 -3.804688 4.816406 -3.113281 5.078125 -2.53125 C 5.335938 -1.976562 5.882812 -1.703125 6.71875 -1.703125 C 8.25 -1.703125 9.421875 -2.1875 10.234375 -3.15625 C 11.054688 -4.125 11.632812 -5.453125 11.96875 -7.140625 L 12.96875 -12.265625 L 14.921875 -12.265625 L 12.515625 0 L 10.578125 0 Z M 10.984375 -2.09375 "/></g></g><g style="fill:#3d3d3d;fill-opacity:1;"><g transform="translate(64.409467, 110.860582)"><path style="stroke:none" d="M 10.296875 -9.734375 C 9.941406 -10.140625 9.503906 -10.34375 8.984375 -10.34375 C 8.484375 -10.34375 8.019531 -10.203125 7.59375 -9.921875 C 7.382812 -9.796875 7.1875 -9.640625 7 -9.453125 C 6.8125 -9.265625 6.632812 -9.070312 6.46875 -8.875 C 5.832031 -8.050781 5.425781 -7.140625 5.25 -6.140625 L 4.046875 0 L 2.09375 0 L 4.484375 -12.265625 L 6.4375 -12.265625 L 5.9375 -9.734375 L 6.109375 -10.234375 C 7.054688 -11.753906 8.21875 -12.515625 9.59375 -12.515625 C 10.039062 -12.515625 10.441406 -12.429688 10.796875 -12.265625 Z M 10.296875 -9.734375 "/></g></g><path style=" stroke:none;fill-rule:nonzero;fill:#ffbde9;fill-opacity:1;" d="M 86.859375 82.78125 L 179.195312 82.78125 C 183.417969 82.78125 186.839844 86.203125 186.839844 90.425781 L 186.839844 113.363281 C 186.839844 117.585938 183.417969 121.007812 179.195312 121.007812 L 86.859375 121.007812 C 82.636719 121.007812 79.210938 117.585938 79.210938 113.363281 L 79.210938 90.425781 C 79.210938 86.203125 82.636719 82.78125 86.859375 82.78125 Z M 86.859375 82.78125 "/><g style="fill:#3d3d3d;fill-opacity:1;"><g transform="translate(84.567149, 110.860582)"><path style="stroke:none" d="M 15.34375 -6.421875 L 15.140625 -5.390625 L 4.34375 -5.390625 C 4.332031 -4.328125 4.671875 -3.460938 5.359375 -2.796875 C 6.066406 -2.097656 6.945312 -1.75 8 -1.75 C 8.351562 -1.75 8.707031 -1.785156 9.0625 -1.859375 C 9.414062 -1.941406 9.769531 -2.066406 10.125 -2.234375 C 10.476562 -2.398438 10.8125 -2.59375 11.125 -2.8125 C 11.445312 -3.039062 11.738281 -3.300781 12 -3.59375 L 14.21875 -3.59375 C 13.476562 -2.425781 12.515625 -1.507812 11.328125 -0.84375 C 10.117188 -0.15625 8.984375 0.1875 7.921875 0.1875 C 6.835938 0.1875 5.945312 0.0195312 5.25 -0.3125 C 4.894531 -0.476562 4.566406 -0.671875 4.265625 -0.890625 C 3.972656 -1.117188 3.703125 -1.378906 3.453125 -1.671875 C 2.453125 -2.898438 2.117188 -4.40625 2.453125 -6.1875 C 2.785156 -7.957031 3.707031 -9.460938 5.21875 -10.703125 C 6.738281 -11.972656 8.375 -12.609375 10.125 -12.609375 C 11.832031 -12.609375 13.207031 -12.003906 14.25 -10.796875 C 15.3125 -9.566406 15.675781 -8.109375 15.34375 -6.421875 Z M 13.390625 -7.0625 C 13.347656 -8.113281 12.992188 -8.976562 12.328125 -9.65625 C 11.660156 -10.320312 10.796875 -10.65625 9.734375 -10.65625 C 8.148438 -10.65625 6.753906 -9.929688 5.546875 -8.484375 C 5.179688 -8.035156 4.894531 -7.5625 4.6875 -7.0625 Z M 13.390625 -7.0625 "/></g></g><g style="fill:#3d3d3d;fill-opacity:1;"><g transform="translate(99.766827, 110.860582)"><path style="stroke:none" d="M 17.65625 -0.0625 L 19.15625 -7.71875 C 19.40625 -8.988281 19.175781 -9.882812 18.46875 -10.40625 C 18.21875 -10.570312 17.804688 -10.65625 17.234375 -10.65625 C 16.660156 -10.65625 16.09375 -10.488281 15.53125 -10.15625 C 15.25 -9.988281 14.988281 -9.796875 14.75 -9.578125 C 14.507812 -9.367188 14.285156 -9.132812 14.078125 -8.875 C 14.003906 -8.757812 13.929688 -8.648438 13.859375 -8.546875 C 13.785156 -8.441406 13.710938 -8.328125 13.640625 -8.203125 C 13.617188 -8.128906 13.601562 -8.050781 13.59375 -7.96875 C 13.582031 -7.894531 13.570312 -7.8125 13.5625 -7.71875 L 12.046875 -0.0625 L 10.09375 -0.0625 L 11.609375 -7.71875 C 11.847656 -8.988281 11.613281 -9.882812 10.90625 -10.40625 C 10.664062 -10.570312 10.253906 -10.65625 9.671875 -10.65625 C 9.097656 -10.65625 8.535156 -10.488281 7.984375 -10.15625 C 7.703125 -9.988281 7.4375 -9.796875 7.1875 -9.578125 C 6.945312 -9.367188 6.726562 -9.132812 6.53125 -8.875 C 5.988281 -8.164062 5.566406 -7.316406 5.265625 -6.328125 L 4.046875 -0.0625 L 2.09375 -0.0625 L 4.484375 -12.328125 L 6.4375 -12.328125 L 6.046875 -10.375 C 6.304688 -10.6875 6.578125 -10.972656 6.859375 -11.234375 C 7.140625 -11.492188 7.4375 -11.71875 7.75 -11.90625 C 8.457031 -12.375 9.25 -12.609375 10.125 -12.609375 C 11 -12.609375 11.660156 -12.476562 12.109375 -12.21875 C 12.585938 -11.9375 12.945312 -11.570312 13.1875 -11.125 C 13.257812 -11 13.328125 -10.859375 13.390625 -10.703125 C 13.460938 -10.554688 13.519531 -10.410156 13.5625 -10.265625 C 13.820312 -10.597656 14.085938 -10.90625 14.359375 -11.1875 C 14.640625 -11.46875 14.945312 -11.707031 15.28125 -11.90625 C 15.988281 -12.375 16.789062 -12.609375 17.6875 -12.609375 C 18.5625 -12.609375 19.21875 -12.476562 19.65625 -12.21875 C 20.144531 -11.9375 20.507812 -11.570312 20.75 -11.125 C 21.269531 -10.21875 21.390625 -9.082031 21.109375 -7.71875 L 19.609375 -0.0625 Z M 17.65625 -0.0625 "/></g></g><g style="fill:#3d3d3d;fill-opacity:1;"><g transform="translate(121.046378, 110.860582)"><path style="stroke:none" d="M 13.328125 -6.1875 C 13.566406 -7.394531 13.335938 -8.445312 12.640625 -9.34375 C 11.929688 -10.21875 10.960938 -10.65625 9.734375 -10.65625 C 8.503906 -10.65625 7.367188 -10.21875 6.328125 -9.34375 C 5.304688 -8.488281 4.664062 -7.4375 4.40625 -6.1875 C 4.1875 -4.957031 4.421875 -3.914062 5.109375 -3.0625 C 5.804688 -2.1875 6.769531 -1.75 8 -1.75 C 9.226562 -1.75 10.363281 -2.1875 11.40625 -3.0625 C 12.46875 -3.957031 13.109375 -5 13.328125 -6.1875 Z M 15.28125 -6.1875 C 14.945312 -4.40625 14.023438 -2.898438 12.515625 -1.671875 C 11.035156 -0.429688 9.410156 0.1875 7.640625 0.1875 C 5.878906 0.1875 4.484375 -0.429688 3.453125 -1.671875 C 2.453125 -2.898438 2.117188 -4.40625 2.453125 -6.1875 C 2.785156 -7.957031 3.707031 -9.460938 5.21875 -10.703125 C 6.738281 -11.972656 8.375 -12.609375 10.125 -12.609375 C 11.894531 -12.609375 13.28125 -11.972656 14.28125 -10.703125 C 15.28125 -9.460938 15.613281 -7.957031 15.28125 -6.1875 Z M 15.28125 -6.1875 "/></g></g><g style="fill:#3d3d3d;fill-opacity:1;"><g transform="translate(136.385506, 110.860582)"><path style="stroke:none" d="M 2.59375 -10.453125 L 2.953125 -12.265625 L 6.03125 -12.265625 L 6.9375 -17.046875 L 8.890625 -17.046875 L 7.984375 -12.265625 L 11.015625 -12.265625 L 10.65625 -10.453125 L 7.609375 -10.453125 L 5.578125 0 L 3.625 0 L 5.65625 -10.453125 Z M 2.59375 -10.453125 "/></g></g><g style="fill:#3d3d3d;fill-opacity:1;"><g transform="translate(145.561093, 110.860582)"><path style="stroke:none" d="M 7.28125 -16.515625 C 7.46875 -16.273438 7.53125 -15.976562 7.46875 -15.625 C 7.414062 -15.320312 7.238281 -15.03125 6.9375 -14.75 C 6.675781 -14.507812 6.363281 -14.390625 6 -14.390625 C 5.644531 -14.390625 5.375 -14.507812 5.1875 -14.75 C 5 -14.988281 4.9375 -15.28125 5 -15.625 C 5.050781 -15.957031 5.222656 -16.253906 5.515625 -16.515625 C 5.773438 -16.753906 6.09375 -16.875 6.46875 -16.875 C 6.820312 -16.875 7.09375 -16.753906 7.28125 -16.515625 Z M 4.1875 0 L 2.234375 0 L 4.625 -12.265625 L 6.578125 -12.265625 Z M 4.1875 0 "/></g></g><g style="fill:#3d3d3d;fill-opacity:1;"><g transform="translate(151.947751, 110.860582)"><path style="stroke:none" d="M 13.328125 -6.1875 C 13.566406 -7.394531 13.335938 -8.445312 12.640625 -9.34375 C 11.929688 -10.21875 10.960938 -10.65625 9.734375 -10.65625 C 8.503906 -10.65625 7.367188 -10.21875 6.328125 -9.34375 C 5.304688 -8.488281 4.664062 -7.4375 4.40625 -6.1875 C 4.1875 -4.957031 4.421875 -3.914062 5.109375 -3.0625 C 5.804688 -2.1875 6.769531 -1.75 8 -1.75 C 9.226562 -1.75 10.363281 -2.1875 11.40625 -3.0625 C 12.46875 -3.957031 13.109375 -5 13.328125 -6.1875 Z M 15.28125 -6.1875 C 14.945312 -4.40625 14.023438 -2.898438 12.515625 -1.671875 C 11.035156 -0.429688 9.410156 0.1875 7.640625 0.1875 C 5.878906 0.1875 4.484375 -0.429688 3.453125 -1.671875 C 2.453125 -2.898438 2.117188 -4.40625 2.453125 -6.1875 C 2.785156 -7.957031 3.707031 -9.460938 5.21875 -10.703125 C 6.738281 -11.972656 8.375 -12.609375 10.125 -12.609375 C 11.894531 -12.609375 13.28125 -11.972656 14.28125 -10.703125 C 15.28125 -9.460938 15.613281 -7.957031 15.28125 -6.1875 Z M 15.28125 -6.1875 "/></g></g><g style="fill:#3d3d3d;fill-opacity:1;"><g transform="translate(167.286879, 110.860582)"><path style="stroke:none" d="M 10.578125 0 L 12.046875 -7.671875 C 12.210938 -8.453125 12.164062 -9.128906 11.90625 -9.703125 C 11.644531 -10.285156 11.109375 -10.578125 10.296875 -10.578125 C 9.453125 -10.578125 8.734375 -10.414062 8.140625 -10.09375 C 7.566406 -9.800781 7.066406 -9.394531 6.640625 -8.875 C 5.890625 -7.957031 5.359375 -6.707031 5.046875 -5.125 L 4.046875 0 L 2.09375 0 L 4.484375 -12.265625 L 6.4375 -12.265625 L 6.03125 -10.15625 C 6.550781 -10.84375 7.179688 -11.398438 7.921875 -11.828125 C 8.703125 -12.285156 9.507812 -12.515625 10.34375 -12.515625 C 11.238281 -12.515625 11.925781 -12.394531 12.40625 -12.15625 C 12.875 -11.914062 13.257812 -11.5625 13.5625 -11.09375 C 14.132812 -10.238281 14.28125 -9.097656 14 -7.671875 L 12.515625 0 Z M 10.578125 0 "/></g></g><path style=" stroke:none;fill-rule:nonzero;fill:#b8a7ff;fill-opacity:1;" d="M 198.285156 82.667969 L 252.769531 82.667969 C 254.808594 82.667969 256.765625 83.480469 258.207031 84.921875 C 259.652344 86.363281 260.460938 88.320312 260.460938 90.359375 L 260.460938 113.429688 C 260.460938 115.46875 259.652344 117.425781 258.207031 118.867188 C 256.765625 120.3125 254.808594 121.121094 252.769531 121.121094 L 198.285156 121.121094 C 194.039062 121.121094 190.59375 117.679688 190.59375 113.429688 L 190.59375 90.359375 C 190.59375 86.113281 194.039062 82.667969 198.285156 82.667969 Z M 198.285156 82.667969 "/><g style="fill:#3d3d3d;fill-opacity:1;"><g transform="translate(196.173994, 110.860582)"><path style="stroke:none" d="M 13.046875 -6.140625 C 13.273438 -7.328125 13.0625 -8.367188 12.40625 -9.265625 C 11.738281 -10.148438 10.800781 -10.59375 9.59375 -10.59375 C 8.363281 -10.59375 7.25 -10.148438 6.25 -9.265625 C 5.238281 -8.367188 4.625 -7.328125 4.40625 -6.140625 C 4.1875 -4.929688 4.390625 -3.890625 5.015625 -3.015625 C 5.691406 -2.117188 6.640625 -1.671875 7.859375 -1.671875 C 9.066406 -1.671875 10.175781 -2.117188 11.1875 -3.015625 C 12.207031 -3.921875 12.828125 -4.960938 13.046875 -6.140625 Z M 13.8125 0 L 11.859375 0 L 12.265625 -2.09375 C 12.191406 -2.019531 12.117188 -1.945312 12.046875 -1.875 C 11.972656 -1.8125 11.898438 -1.742188 11.828125 -1.671875 C 10.410156 -0.367188 8.859375 0.28125 7.171875 0.28125 C 5.460938 0.28125 4.160156 -0.367188 3.265625 -1.671875 C 2.390625 -2.921875 2.117188 -4.410156 2.453125 -6.140625 C 2.785156 -7.867188 3.632812 -9.351562 5 -10.59375 C 6.40625 -11.894531 7.957031 -12.546875 9.65625 -12.546875 C 11.363281 -12.546875 12.664062 -11.894531 13.5625 -10.59375 C 13.59375 -10.519531 13.632812 -10.453125 13.6875 -10.390625 C 13.75 -10.328125 13.796875 -10.257812 13.828125 -10.1875 L 15.921875 -20.921875 L 17.875 -20.921875 Z M 13.8125 0 "/></g></g><g style="fill:#3d3d3d;fill-opacity:1;"><g transform="translate(212.07091, 110.860582)"><path style="stroke:none" d="M 7.28125 -16.515625 C 7.46875 -16.273438 7.53125 -15.976562 7.46875 -15.625 C 7.414062 -15.320312 7.238281 -15.03125 6.9375 -14.75 C 6.675781 -14.507812 6.363281 -14.390625 6 -14.390625 C 5.644531 -14.390625 5.375 -14.507812 5.1875 -14.75 C 5 -14.988281 4.9375 -15.28125 5 -15.625 C 5.050781 -15.957031 5.222656 -16.253906 5.515625 -16.515625 C 5.773438 -16.753906 6.09375 -16.875 6.46875 -16.875 C 6.820312 -16.875 7.09375 -16.753906 7.28125 -16.515625 Z M 4.1875 0 L 2.234375 0 L 4.625 -12.265625 L 6.578125 -12.265625 Z M 4.1875 0 "/></g></g><g style="fill:#3d3d3d;fill-opacity:1;"><g transform="translate(218.457569, 110.860582)"><path style="stroke:none" d="M 13.046875 -6.140625 C 13.273438 -7.328125 13.0625 -8.367188 12.40625 -9.265625 C 11.738281 -10.148438 10.800781 -10.59375 9.59375 -10.59375 C 8.363281 -10.59375 7.25 -10.148438 6.25 -9.265625 C 5.238281 -8.367188 4.625 -7.328125 4.40625 -6.140625 C 4.1875 -4.929688 4.390625 -3.890625 5.015625 -3.015625 C 5.691406 -2.117188 6.640625 -1.671875 7.859375 -1.671875 C 9.066406 -1.671875 10.175781 -2.117188 11.1875 -3.015625 C 12.207031 -3.921875 12.828125 -4.960938 13.046875 -6.140625 Z M 13.8125 0 L 11.859375 0 L 12.265625 -2.09375 C 12.191406 -2.019531 12.117188 -1.945312 12.046875 -1.875 C 11.972656 -1.8125 11.898438 -1.742188 11.828125 -1.671875 C 10.410156 -0.367188 8.859375 0.28125 7.171875 0.28125 C 5.460938 0.28125 4.160156 -0.367188 3.265625 -1.671875 C 2.390625 -2.921875 2.117188 -4.410156 2.453125 -6.140625 C 2.785156 -7.867188 3.632812 -9.351562 5 -10.59375 C 6.40625 -11.894531 7.957031 -12.546875 9.65625 -12.546875 C 11.363281 -12.546875 12.664062 -11.894531 13.5625 -10.59375 C 13.59375 -10.519531 13.632812 -10.453125 13.6875 -10.390625 C 13.75 -10.328125 13.796875 -10.257812 13.828125 -10.1875 L 14.25 -12.265625 L 16.203125 -12.265625 Z M 13.8125 0 "/></g></g><g style="fill:#3d3d3d;fill-opacity:1;"><g transform="translate(234.354485, 110.860582)"><path style="stroke:none" d="M 10.296875 -9.734375 C 9.941406 -10.140625 9.503906 -10.34375 8.984375 -10.34375 C 8.484375 -10.34375 8.019531 -10.203125 7.59375 -9.921875 C 7.382812 -9.796875 7.1875 -9.640625 7 -9.453125 C 6.8125 -9.265625 6.632812 -9.070312 6.46875 -8.875 C 5.832031 -8.050781 5.425781 -7.140625 5.25 -6.140625 L 4.046875 0 L 2.09375 0 L 4.484375 -12.265625 L 6.4375 -12.265625 L 5.9375 -9.734375 L 6.109375 -10.234375 C 7.054688 -11.753906 8.21875 -12.515625 9.59375 -12.515625 C 10.039062 -12.515625 10.441406 -12.429688 10.796875 -12.265625 Z M 10.296875 -9.734375 "/></g></g><g style="fill:#3d3d3d;fill-opacity:1;"><g transform="translate(243.028066, 110.860582)"><path style="stroke:none" d="M 2.28125 6.96875 L -0.078125 6.96875 L 5.796875 -2.015625 L 2.671875 -12.265625 L 4.90625 -12.265625 L 7.21875 -4.046875 L 12.359375 -12.265625 L 14.53125 -12.265625 Z M 2.28125 6.96875 "/></g></g></g></svg>