<svg width="356" height="95" viewBox="0 0 356 95" fill="none" xmlns="http://www.w3.org/2000/svg">
<g clip-path="url(#clip0_4_548)">
<path d="M249 20C249 8.9543 257.954 0 269 0H336C347.046 0 356 8.95431 356 20V75C356 86.0457 347.046 95 336 95H269C257.954 95 249 86.0457 249 75V20Z" fill="#B8A7FF"/>
<path d="M0 20C0 8.9543 8.95431 0 20 0H224C235.046 0 244 8.95431 244 20V75C244 86.0457 235.046 95 224 95H20C8.95431 95 0 86.0457 0 75V20Z" fill="#FFBDE9"/>
<path d="M329.583 68.256L316.399 37.6H322.799L332.591 61.6H330.543L340.847 37.6H347.247L333.039 68.256H329.583ZM320.879 80.736L329.839 62.368L333.039 68.256L327.279 80.736H320.879Z" fill="#3D3D3D"/>
<path d="M294.474 68V37.6H300.234V68H294.474ZM300.234 50.656L298.058 49.696C298.058 45.8133 298.954 42.72 300.746 40.416C302.538 38.112 305.119 36.96 308.49 36.96C310.026 36.96 311.413 37.2373 312.65 37.792C313.887 38.304 315.039 39.1787 316.106 40.416L312.33 44.32C311.69 43.6373 310.986 43.1467 310.218 42.848C309.45 42.5493 308.554 42.4 307.53 42.4C305.397 42.4 303.647 43.0827 302.282 44.448C300.917 45.8133 300.234 47.8827 300.234 50.656Z" fill="#3D3D3D"/>
<path d="M270.152 68.64C267.379 68.64 264.861 67.9573 262.6 66.592C260.339 65.184 258.547 63.2853 257.224 60.896C255.944 58.5067 255.304 55.8187 255.304 52.832C255.304 49.8453 255.944 47.1573 257.224 44.768C258.547 42.3787 260.317 40.48 262.536 39.072C264.797 37.664 267.336 36.96 270.152 36.96C272.456 36.96 274.504 37.4507 276.296 38.432C278.131 39.3707 279.603 40.6933 280.712 42.4C281.821 44.064 282.44 46.0053 282.568 48.224V57.376C282.44 59.552 281.821 61.4933 280.712 63.2C279.645 64.9067 278.195 66.2507 276.36 67.232C274.568 68.1707 272.499 68.64 270.152 68.64ZM271.112 63.2C273.971 63.2 276.275 62.24 278.024 60.32C279.773 58.3573 280.648 55.8613 280.648 52.832C280.648 50.7413 280.243 48.928 279.432 47.392C278.664 45.8133 277.555 44.5973 276.104 43.744C274.653 42.848 272.968 42.4 271.048 42.4C269.128 42.4 267.421 42.848 265.928 43.744C264.477 44.64 263.325 45.8773 262.472 47.456C261.661 48.992 261.256 50.7627 261.256 52.768C261.256 54.816 261.661 56.6293 262.472 58.208C263.325 59.744 264.499 60.96 265.992 61.856C267.485 62.752 269.192 63.2 271.112 63.2ZM280.264 68V59.808L281.352 52.384L280.264 45.024V37.6H286.088V68H280.264Z" fill="#3D3D3D"/>
<path d="M229.228 68V50.272C229.228 47.968 228.503 46.0693 227.052 44.576C225.601 43.0827 223.724 42.336 221.42 42.336C219.884 42.336 218.519 42.6773 217.324 43.36C216.129 44.0427 215.191 44.9813 214.508 46.176C213.825 47.3707 213.484 48.736 213.484 50.272L211.116 48.928C211.116 46.624 211.628 44.576 212.652 42.784C213.676 40.992 215.105 39.584 216.94 38.56C218.775 37.4933 220.844 36.96 223.148 36.96C225.452 36.96 227.479 37.536 229.228 38.688C231.02 39.84 232.428 41.3547 233.452 43.232C234.476 45.0667 234.988 47.0293 234.988 49.12V68H229.228ZM207.724 68V37.6H213.484V68H207.724Z" fill="#3D3D3D"/>
<path d="M185.362 68.64C182.375 68.64 179.687 67.936 177.298 66.528C174.909 65.12 173.01 63.2213 171.602 60.832C170.194 58.4 169.49 55.6907 169.49 52.704C169.49 49.76 170.194 47.1147 171.602 44.768C173.01 42.3787 174.909 40.48 177.298 39.072C179.687 37.664 182.375 36.96 185.362 36.96C188.306 36.96 190.973 37.664 193.362 39.072C195.794 40.4373 197.714 42.3147 199.122 44.704C200.53 47.0933 201.234 49.76 201.234 52.704C201.234 55.6907 200.53 58.4 199.122 60.832C197.714 63.2213 195.794 65.12 193.362 66.528C190.973 67.936 188.306 68.64 185.362 68.64ZM185.362 63.072C187.282 63.072 188.989 62.624 190.482 61.728C191.975 60.832 193.149 59.616 194.002 58.08C194.855 56.5013 195.282 54.7093 195.282 52.704C195.282 50.7413 194.834 48.992 193.938 47.456C193.085 45.92 191.911 44.7253 190.418 43.872C188.967 42.976 187.282 42.528 185.362 42.528C183.442 42.528 181.735 42.976 180.242 43.872C178.749 44.7253 177.575 45.92 176.722 47.456C175.869 48.992 175.442 50.7413 175.442 52.704C175.442 54.7093 175.869 56.5013 176.722 58.08C177.575 59.616 178.749 60.832 180.242 61.728C181.735 62.624 183.442 63.072 185.362 63.072Z" fill="#3D3D3D"/>
<path d="M157.226 68V37.6H162.986V68H157.226ZM160.106 31.52C159.039 31.52 158.164 31.1787 157.482 30.496C156.799 29.7707 156.458 28.8747 156.458 27.808C156.458 26.784 156.799 25.9307 157.482 25.248C158.164 24.5227 159.039 24.16 160.106 24.16C161.172 24.16 162.047 24.5227 162.73 25.248C163.412 25.9307 163.754 26.784 163.754 27.808C163.754 28.8747 163.412 29.7707 162.73 30.496C162.047 31.1787 161.172 31.52 160.106 31.52Z" fill="#3D3D3D"/>
<path d="M138.271 68V24.864H144.031V68H138.271ZM130.783 42.848V37.6H151.519V42.848H130.783Z" fill="#3D3D3D"/>
<path d="M112.174 68.64C109.188 68.64 106.5 67.936 104.11 66.528C101.721 65.12 99.8225 63.2213 98.4145 60.832C97.0065 58.4 96.3025 55.6907 96.3025 52.704C96.3025 49.76 97.0065 47.1147 98.4145 44.768C99.8225 42.3787 101.721 40.48 104.11 39.072C106.5 37.664 109.188 36.96 112.174 36.96C115.118 36.96 117.785 37.664 120.174 39.072C122.606 40.4373 124.526 42.3147 125.934 44.704C127.342 47.0933 128.046 49.76 128.046 52.704C128.046 55.6907 127.342 58.4 125.934 60.832C124.526 63.2213 122.606 65.12 120.174 66.528C117.785 67.936 115.118 68.64 112.174 68.64ZM112.174 63.072C114.094 63.072 115.801 62.624 117.294 61.728C118.788 60.832 119.961 59.616 120.814 58.08C121.668 56.5013 122.094 54.7093 122.094 52.704C122.094 50.7413 121.646 48.992 120.75 47.456C119.897 45.92 118.724 44.7253 117.23 43.872C115.78 42.976 114.094 42.528 112.174 42.528C110.254 42.528 108.548 42.976 107.054 43.872C105.561 44.7253 104.388 45.92 103.534 47.456C102.681 48.992 102.254 50.7413 102.254 52.704C102.254 54.7093 102.681 56.5013 103.534 58.08C104.388 59.616 105.561 60.832 107.054 61.728C108.548 62.624 110.254 63.072 112.174 63.072Z" fill="#3D3D3D"/>
<path d="M43.5365 68V37.6H49.2965V68H43.5365ZM64.0805 68V49.632C64.0805 47.3707 63.3765 45.6 61.9685 44.32C60.6032 42.9973 58.8752 42.336 56.7845 42.336C55.3765 42.336 54.1178 42.6347 53.0085 43.232C51.8992 43.8293 51.0032 44.6613 50.3205 45.728C49.6378 46.7947 49.2965 48.0747 49.2965 49.568L46.9285 48.416C46.9285 46.112 47.4192 44.1067 48.4005 42.4C49.4245 40.6933 50.8112 39.3707 52.5605 38.432C54.3098 37.4507 56.2725 36.96 58.4485 36.96C60.5818 36.96 62.5018 37.4293 64.2085 38.368C65.9578 39.3067 67.3232 40.6293 68.3045 42.336C69.3285 44.0427 69.8405 46.0693 69.8405 48.416V68H64.0805ZM84.6245 68V49.632C84.6245 47.3707 83.9205 45.6 82.5125 44.32C81.1472 42.9973 79.4405 42.336 77.3925 42.336C75.9845 42.336 74.7045 42.6347 73.5525 43.232C72.4432 43.8293 71.5472 44.6613 70.8645 45.728C70.1818 46.7947 69.8405 48.0747 69.8405 49.568L66.5765 48.416C66.7045 46.0693 67.3232 44.064 68.4325 42.4C69.5845 40.6933 71.0565 39.3707 72.8485 38.432C74.6405 37.4507 76.6032 36.96 78.7365 36.96C80.9552 36.96 82.9392 37.4293 84.6885 38.368C86.4378 39.3067 87.8245 40.6293 88.8485 42.336C89.9152 44.0427 90.4485 46.0907 90.4485 48.48V68H84.6245Z" fill="#3D3D3D"/>
<path d="M23.304 68.64C20.2747 68.64 17.544 67.9573 15.112 66.592C12.68 65.184 10.76 63.2853 9.35199 60.896C7.94399 58.5067 7.23999 55.7973 7.23999 52.768C7.23999 49.7813 7.92266 47.0933 9.28799 44.704C10.696 42.3147 12.5733 40.4373 14.92 39.072C17.3093 37.664 19.976 36.96 22.92 36.96C25.736 36.96 28.2107 37.6 30.344 38.88C32.52 40.16 34.2053 41.9307 35.4 44.192C36.6373 46.4533 37.256 49.0133 37.256 51.872C37.256 52.2987 37.2347 52.768 37.192 53.28C37.1493 53.7493 37.064 54.304 36.936 54.944H11.272V50.144H33.864L31.752 52C31.752 49.952 31.3893 48.224 30.664 46.816C29.9387 45.3653 28.9147 44.256 27.592 43.488C26.2693 42.6773 24.6693 42.272 22.792 42.272C20.8293 42.272 19.1013 42.6987 17.608 43.552C16.1147 44.4053 14.9627 45.6 14.152 47.136C13.3413 48.672 12.936 50.4853 12.936 52.576C12.936 54.7093 13.3627 56.5867 14.216 58.208C15.0693 59.7867 16.2853 61.024 17.864 61.92C19.4427 62.7733 21.256 63.2 23.304 63.2C25.0107 63.2 26.568 62.9013 27.976 62.304C29.4267 61.7067 30.664 60.8107 31.688 59.616L35.4 63.392C33.9493 65.0987 32.1573 66.4 30.024 67.296C27.9333 68.192 25.6933 68.64 23.304 68.64Z" fill="#3D3D3D"/>
</g>
<defs>
<clipPath id="clip0_4_548">
<rect width="356" height="95" fill="white"/>
</clipPath>
</defs>
</svg>
