<svg width="360" height="95" viewBox="0 0 360 95" fill="none" xmlns="http://www.w3.org/2000/svg">
<g clip-path="url(#clip0_4_548)">
<path d="M253 20C253 8.9543 261.954 0 273 0H340C351.046 0 360 8.95431 360 20V75C360 86.0457 351.046 95 340 95H273C261.954 95 253 86.0457 253 75V20Z" fill="#B8A7FF"/>
<path d="M0 20C0 8.9543 9.1011 0 20.3279 0H227.672C238.899 0 248 8.95431 248 20V75C248 86.0457 238.899 95 227.672 95H20.3279C9.1011 95 0 86.0457 0 75V20Z" fill="#FFBDE9"/>
<path d="M333.583 68.256L320.399 37.6H326.799L336.591 61.6H334.543L344.847 37.6H351.247L337.039 68.256H333.583ZM324.879 80.736L333.839 62.368L337.039 68.256L331.279 80.736H324.879Z" fill="#3D3D3D"/>
<path d="M298.474 68V37.6H304.234V68H298.474ZM304.234 50.656L302.058 49.696C302.058 45.8133 302.954 42.72 304.746 40.416C306.538 38.112 309.119 36.96 312.49 36.96C314.026 36.96 315.413 37.2373 316.65 37.792C317.887 38.304 319.039 39.1787 320.106 40.416L316.33 44.32C315.69 43.6373 314.986 43.1467 314.218 42.848C313.45 42.5493 312.554 42.4 311.53 42.4C309.397 42.4 307.647 43.0827 306.282 44.448C304.917 45.8133 304.234 47.8827 304.234 50.656Z" fill="#3D3D3D"/>
<path d="M274.152 68.64C271.379 68.64 268.861 67.9573 266.6 66.592C264.339 65.184 262.547 63.2853 261.224 60.896C259.944 58.5067 259.304 55.8187 259.304 52.832C259.304 49.8453 259.944 47.1573 261.224 44.768C262.547 42.3787 264.317 40.48 266.536 39.072C268.797 37.664 271.336 36.96 274.152 36.96C276.456 36.96 278.504 37.4507 280.296 38.432C282.131 39.3707 283.603 40.6933 284.712 42.4C285.821 44.064 286.44 46.0053 286.568 48.224V57.376C286.44 59.552 285.821 61.4933 284.712 63.2C283.645 64.9067 282.195 66.2507 280.36 67.232C278.568 68.1707 276.499 68.64 274.152 68.64ZM275.112 63.2C277.971 63.2 280.275 62.24 282.024 60.32C283.773 58.3573 284.648 55.8613 284.648 52.832C284.648 50.7413 284.243 48.928 283.432 47.392C282.664 45.8133 281.555 44.5973 280.104 43.744C278.653 42.848 276.968 42.4 275.048 42.4C273.128 42.4 271.421 42.848 269.928 43.744C268.477 44.64 267.325 45.8773 266.472 47.456C265.661 48.992 265.256 50.7627 265.256 52.768C265.256 54.816 265.661 56.6293 266.472 58.208C267.325 59.744 268.499 60.96 269.992 61.856C271.485 62.752 273.192 63.2 275.112 63.2ZM284.264 68V59.808L285.352 52.384L284.264 45.024V37.6H290.088V68H284.264Z" fill="#3D3D3D"/>
<path d="M233.228 68V50.272C233.228 47.968 232.503 46.0693 231.052 44.576C229.601 43.0827 227.724 42.336 225.42 42.336C223.884 42.336 222.519 42.6773 221.324 43.36C220.129 44.0427 219.191 44.9813 218.508 46.176C217.825 47.3707 217.484 48.736 217.484 50.272L215.116 48.928C215.116 46.624 215.628 44.576 216.652 42.784C217.676 40.992 219.105 39.584 220.94 38.56C222.775 37.4933 224.844 36.96 227.148 36.96C229.452 36.96 231.479 37.536 233.228 38.688C235.02 39.84 236.428 41.3547 237.452 43.232C238.476 45.0667 238.988 47.0293 238.988 49.12V68H233.228ZM211.724 68V37.6H217.484V68H211.724Z" fill="#3D3D3D"/>
<path d="M189.362 68.64C186.375 68.64 183.687 67.936 181.298 66.528C178.909 65.12 177.01 63.2213 175.602 60.832C174.194 58.4 173.49 55.6907 173.49 52.704C173.49 49.76 174.194 47.1147 175.602 44.768C177.01 42.3787 178.909 40.48 181.298 39.072C183.687 37.664 186.375 36.96 189.362 36.96C192.306 36.96 194.973 37.664 197.362 39.072C199.794 40.4373 201.714 42.3147 203.122 44.704C204.53 47.0933 205.234 49.76 205.234 52.704C205.234 55.6907 204.53 58.4 203.122 60.832C201.714 63.2213 199.794 65.12 197.362 66.528C194.973 67.936 192.306 68.64 189.362 68.64ZM189.362 63.072C191.282 63.072 192.989 62.624 194.482 61.728C195.975 60.832 197.149 59.616 198.002 58.08C198.855 56.5013 199.282 54.7093 199.282 52.704C199.282 50.7413 198.834 48.992 197.938 47.456C197.085 45.92 195.911 44.7253 194.418 43.872C192.967 42.976 191.282 42.528 189.362 42.528C187.442 42.528 185.735 42.976 184.242 43.872C182.749 44.7253 181.575 45.92 180.722 47.456C179.869 48.992 179.442 50.7413 179.442 52.704C179.442 54.7093 179.869 56.5013 180.722 58.08C181.575 59.616 182.749 60.832 184.242 61.728C185.735 62.624 187.442 63.072 189.362 63.072Z" fill="#3D3D3D"/>
<path d="M161.226 68V37.6H166.986V68H161.226ZM164.106 31.52C163.039 31.52 162.164 31.1787 161.482 30.496C160.799 29.7707 160.458 28.8747 160.458 27.808C160.458 26.784 160.799 25.9307 161.482 25.248C162.164 24.5227 163.039 24.16 164.106 24.16C165.172 24.16 166.047 24.5227 166.73 25.248C167.412 25.9307 167.754 26.784 167.754 27.808C167.754 28.8747 167.412 29.7707 166.73 30.496C166.047 31.1787 165.172 31.52 164.106 31.52Z" fill="#3D3D3D"/>
<path d="M142.271 68V24.864H148.031V68H142.271ZM134.783 42.848V37.6H155.519V42.848H134.783Z" fill="#3D3D3D"/>
<path d="M116.174 68.64C113.188 68.64 110.5 67.936 108.11 66.528C105.721 65.12 103.822 63.2213 102.414 60.832C101.006 58.4 100.302 55.6907 100.302 52.704C100.302 49.76 101.006 47.1147 102.414 44.768C103.822 42.3787 105.721 40.48 108.11 39.072C110.5 37.664 113.188 36.96 116.174 36.96C119.118 36.96 121.785 37.664 124.174 39.072C126.606 40.4373 128.526 42.3147 129.934 44.704C131.342 47.0933 132.046 49.76 132.046 52.704C132.046 55.6907 131.342 58.4 129.934 60.832C128.526 63.2213 126.606 65.12 124.174 66.528C121.785 67.936 119.118 68.64 116.174 68.64ZM116.174 63.072C118.094 63.072 119.801 62.624 121.294 61.728C122.788 60.832 123.961 59.616 124.814 58.08C125.668 56.5013 126.094 54.7093 126.094 52.704C126.094 50.7413 125.646 48.992 124.75 47.456C123.897 45.92 122.724 44.7253 121.23 43.872C119.78 42.976 118.094 42.528 116.174 42.528C114.254 42.528 112.548 42.976 111.054 43.872C109.561 44.7253 108.388 45.92 107.534 47.456C106.681 48.992 106.254 50.7413 106.254 52.704C106.254 54.7093 106.681 56.5013 107.534 58.08C108.388 59.616 109.561 60.832 111.054 61.728C112.548 62.624 114.254 63.072 116.174 63.072Z" fill="#3D3D3D"/>
<path d="M47.5365 68V37.6H53.2965V68H47.5365ZM68.0805 68V49.632C68.0805 47.3707 67.3765 45.6 65.9685 44.32C64.6032 42.9973 62.8752 42.336 60.7845 42.336C59.3765 42.336 58.1178 42.6347 57.0085 43.232C55.8992 43.8293 55.0032 44.6613 54.3205 45.728C53.6378 46.7947 53.2965 48.0747 53.2965 49.568L50.9285 48.416C50.9285 46.112 51.4192 44.1067 52.4005 42.4C53.4245 40.6933 54.8112 39.3707 56.5605 38.432C58.3098 37.4507 60.2725 36.96 62.4485 36.96C64.5818 36.96 66.5018 37.4293 68.2085 38.368C69.9578 39.3067 71.3232 40.6293 72.3045 42.336C73.3285 44.0427 73.8405 46.0693 73.8405 48.416V68H68.0805ZM88.6245 68V49.632C88.6245 47.3707 87.9205 45.6 86.5125 44.32C85.1472 42.9973 83.4405 42.336 81.3925 42.336C79.9845 42.336 78.7045 42.6347 77.5525 43.232C76.4432 43.8293 75.5472 44.6613 74.8645 45.728C74.1818 46.7947 73.8405 48.0747 73.8405 49.568L70.5765 48.416C70.7045 46.0693 71.3232 44.064 72.4325 42.4C73.5845 40.6933 75.0565 39.3707 76.8485 38.432C78.6405 37.4507 80.6032 36.96 82.7365 36.96C84.9552 36.96 86.9392 37.4293 88.6885 38.368C90.4378 39.3067 91.8245 40.6293 92.8485 42.336C93.9152 44.0427 94.4485 46.0907 94.4485 48.48V68H88.6245Z" fill="#3D3D3D"/>
<path d="M27.304 68.64C24.2747 68.64 21.544 67.9573 19.112 66.592C16.68 65.184 14.76 63.2853 13.352 60.896C11.944 58.5067 11.24 55.7973 11.24 52.768C11.24 49.7813 11.9227 47.0933 13.288 44.704C14.696 42.3147 16.5733 40.4373 18.92 39.072C21.3093 37.664 23.976 36.96 26.92 36.96C29.736 36.96 32.2107 37.6 34.344 38.88C36.52 40.16 38.2053 41.9307 39.4 44.192C40.6373 46.4533 41.256 49.0133 41.256 51.872C41.256 52.2987 41.2347 52.768 41.192 53.28C41.1493 53.7493 41.064 54.304 40.936 54.944H15.272V50.144H37.864L35.752 52C35.752 49.952 35.3893 48.224 34.664 46.816C33.9387 45.3653 32.9147 44.256 31.592 43.488C30.2693 42.6773 28.6693 42.272 26.792 42.272C24.8293 42.272 23.1013 42.6987 21.608 43.552C20.1147 44.4053 18.9627 45.6 18.152 47.136C17.3413 48.672 16.936 50.4853 16.936 52.576C16.936 54.7093 17.3627 56.5867 18.216 58.208C19.0693 59.7867 20.2853 61.024 21.864 61.92C23.4427 62.7733 25.256 63.2 27.304 63.2C29.0107 63.2 30.568 62.9013 31.976 62.304C33.4267 61.7067 34.664 60.8107 35.688 59.616L39.4 63.392C37.9493 65.0987 36.1573 66.4 34.024 67.296C31.9333 68.192 29.6933 68.64 27.304 68.64Z" fill="#3D3D3D"/>
</g>
<defs>
<clipPath id="clip0_4_548">
<rect width="360" height="95" fill="white"/>
</clipPath>
</defs>
</svg>
